<?xml version="1.0" encoding="utf-8"?>
<!-- Generator: Adobe Illustrator 23.1.0, SVG Export Plug-In . SVG Version: 6.00 Build 0)  -->
<svg version="1.1" id="Logo_xA0_Imagen_1_" xmlns="http://www.w3.org/2000/svg" xmlns:xlink="http://www.w3.org/1999/xlink" x="0px"
	 y="0px" viewBox="0 0 374.4 374.4" style="enable-background:new 0 0 374.4 374.4;" xml:space="preserve">
<style type="text/css">
	.st0{fill:#FEFEFE;}
	.st1{fill:#343434;}
	.st2{fill:#006FBB;}
	.st3{fill:#333333;}
	.st4{fill:#333332;}
</style>
<g>
	<path class="st0" d="M148.85,343.32c0,0,16.19,28.25,44.27,27.54s96.55-99.77,96.55-99.77l6-72.12l-18-49.86l-112.94,3.62
		L78.26,179.2l-9.88,24.35l20.82,17.29h55.41l13.41,3.18l9.88,22.94l-18.71,37.76L148.85,343.32z"/>
	<path class="st1" d="M192.95,374.21c-5.06-4.96-5.32-5.98-2.11-8.74c28.96-24.94,51.47-53.94,57.68-94.39
		c4.28,10.21,2.72,20.27,8.29,28.3c-9.43,16.26-17.72,32.94-30.72,47.3c-6.56,7.25-16.78,12.94-18.76,24.17
		c-0.96,1.12-1.91,2.23-2.87,3.35C200.63,374.21,196.79,374.21,192.95,374.21z"/>
	<path class="st2" d="M207.33,370.86c1.98-11.23,12.19-16.91,18.76-24.17c13-14.36,21.29-31.04,30.72-47.3
		c9.2-2.67,8.49-11.72,10.8-18.19c11.39-31.94,15.47-63.65-8.18-93.12c6.89-1.8,11.48,9.9,15.3,3.47
		c3.03-5.11-4.33-10.28-9.45-14.23c-28.3-21.81-59.77-21.46-92.67-14.72c-28.43,5.82-55.3,17.34-83.98,22.1
		c-7.8,1.3-10.62,7.78-13.26,14.18c-5.29-1.95-9.98-5.02-13.5-9.28c-2.59-3.14-10.88-4.81-4.12-11.46
		c19.09-6.28,35.76-17.86,54.31-25.12c11.58-4.53,10.41-15.4,10.89-22.55c1.36-20.18,14.75-31.36,27.79-42.61
		c5.68-4.9,11.4-9.75,16.7-15.08c19.55-7.62,41.9-11.87,45.97-38.14c10.6-1.18,12.16-12.01,18.49-17.81
		c19.36-17.74,22.63-17.85,33.79,5.75c6.37,13.48,12.85,27.85,10.39,42.88c-4.8,29.36,8.25,50.42,27.51,70.06
		c14.76,15.05,20.2,35.34,27.16,54.55c0.82,2.25,0.13,7.08-1.24,7.71c-3.69,1.69-5.36-1.74-7.16-4.76
		c-2.83-4.76-6.35-9.11-9.58-13.64c-1.29-0.92-2.59-1.84-3.88-2.76c-1.36,2.38-0.71,4.05,1.81,5.04
		c7.59,18.34,9.83,37.91,11.49,57.29c3.13,36.53-13.25,64.82-41.63,86.16C257.53,342.42,234.4,359.88,207.33,370.86z M207.48,117.28
		c-28.83-13.14-42.82,20.73-68.21,19.67c8.57-0.68-0.79,10.58,8.96,10.28c25.88-0.77,51.89-2.68,77.9,1.88
		c-8.12-4.13-16.56-6.75-24.84-9.84c-3.36-1.25-8.98-0.21-9.47-4.88c-0.5-4.82,3.23-8.53,6.88-11.84
		C201.18,120.31,205.62,122.53,207.48,117.28z M200.78,77.77c9.72,0,20.18,2.25,28.98-0.59c10.06-3.26,6.35-17.11,11.72-24.92
		c6.35,3.9,5.06,10.49,7.43,15.42c8.4-12.38,3.31-25,0.63-37.18c-1.75-7.94-6.63-9.82-12.82-2.45
		c-6.39,7.61-13.51,14.96-16.54,24.44C216.7,63.31,214.02,73.91,200.78,77.77z M210.75,122.19c-0.1,0.83-0.39,1.57-0.24,2.2
		c0.32,1.28,1.07,1.37,1.8,0.26c0.2-0.31,0.32-0.95,0.15-1.15C212.04,123,211.41,122.67,210.75,122.19z"/>
	<path class="st3" d="M57.75,178.13c-6.76,6.66,1.52,8.32,4.12,11.46c3.52,4.27,8.21,7.33,13.5,9.28c-1.21,6.76,0.95,9.6,8.31,11.69
		c19.63,5.57,38.03,0.73,56.53-4.2c9.83-2.62,19.27-6.65,29.01-9.63c3.19-0.97,8.24-3.4,9.08,2.44c0.85,5.97,3.39,3.83,7.45,4.15
		c14.32,1.15,28.98,2.78,39.07,15.28c-4.29,0.1-8.76-0.56-12.82,0.45c-10.67,2.68-26.67,0.78-29.1,13.42
		c-3.86,20.09-13.48,37.04-23.52,55.38c14.65-0.49,19.97-14.89,34.18-16.73c-8.78,30.81-31.06,49.48-52.88,68.48
		c-14.56-3.4-23.06-15.4-33.14-24.62c-6.74-6.17-5.44-16.17,0.13-23.31c7.41-9.48,13.66-20.55,25.45-25.62
		c4.58-1.97,7.73-5.26,11.08-8.52c8.66-8.42,18.87-19.41,12.84-30.09c-3.97-7.02-18.71-1.51-28.81-1.07
		c-27.12,1.18-53.96-1.91-76.96-18.52c-8.11-5.86-9.61-15.19-7.37-24.28C45.59,176.7,49.87,171.61,57.75,178.13z"/>
	<path class="st2" d="M140.66,339.61c21.83-19,44.1-37.67,52.88-68.48c-14.2,1.83-19.52,16.23-34.18,16.73
		c10.04-18.33,19.66-35.29,23.52-55.38c2.43-12.65,18.43-10.75,29.1-13.42c4.06-1.02,8.53-0.35,12.82-0.45
		c7,19.52,0.82,37.96-4.05,58.32c-2.75-7.92-5.8-13.71-6.46-20.78c-8.57,11.43-9.08,25.62-15.17,37.75
		c-10.28,20.46-25.1,36.26-43.14,49.5C149.95,347.82,144.43,346.27,140.66,339.61z"/>
	<path class="st3" d="M213.39,34.63c-4.07,26.27-26.42,30.52-45.97,38.14c-2.72-22.39,3.27-43.12,10.64-64
		c3.22-9.11,6.35-6.56,10.5-2.67C197.78,14.74,207.15,23.35,213.39,34.63z"/>
	<path class="st4" d="M207.48,117.28c-1.86,5.26-6.3,3.03-8.77,5.27c-3.65,3.31-7.38,7.02-6.88,11.84c0.49,4.67,6.1,3.63,9.47,4.88
		c8.27,3.08,16.72,5.7,24.84,9.84c-26.01-4.55-52.02-2.65-77.9-1.88c-9.75,0.29-0.38-10.96-8.96-10.28
		C164.66,138.01,178.65,104.14,207.48,117.28z"/>
	<path class="st4" d="M200.78,77.77c13.24-3.86,15.92-14.46,19.39-25.28c3.04-9.48,10.15-16.83,16.54-24.44
		c6.2-7.38,11.07-5.49,12.82,2.45c2.69,12.17,7.77,24.79-0.63,37.18c-2.37-4.93-1.08-11.52-7.43-15.42
		c-5.36,7.81-1.66,21.67-11.72,24.92C220.96,80.02,210.51,77.77,200.78,77.77z"/>
	<path class="st4" d="M210.75,122.19c0.66,0.48,1.29,0.81,1.71,1.31c0.17,0.2,0.05,0.85-0.15,1.15c-0.73,1.11-1.48,1.02-1.8-0.26
		C210.36,123.76,210.65,123.02,210.75,122.19z"/>
</g>
</svg>
